<svg width="1127" height="731" viewBox="0 0 1127 731" fill="none" xmlns="http://www.w3.org/2000/svg">
<g opacity="0.6">
<line x1="82.5671" y1="0.00390627" x2="82.5671" y2="730.989" stroke="#28282A" stroke-opacity="0.2" stroke-width="0.782639" stroke-dasharray="2.35 2.35"/>
<line x1="176.483" y1="0.00390627" x2="176.483" y2="730.989" stroke="#28282A" stroke-opacity="0.2" stroke-width="0.782639" stroke-dasharray="2.35 2.35"/>
<line x1="1126.99" y1="425.046" x2="-0.00683594" y2="425.046" stroke="#28282A" stroke-opacity="0.2" stroke-width="0.782639" stroke-dasharray="2.35 2.35"/>
<line x1="1126.99" y1="474.456" x2="-0.00683594" y2="474.456" stroke="#28282A" stroke-opacity="0.2" stroke-width="0.782639" stroke-dasharray="2.35 2.35"/>
<line x1="1126.99" y1="590.796" x2="-0.00683594" y2="590.796" stroke="#28282A" stroke-opacity="0.2" stroke-width="0.782639" stroke-dasharray="2.35 2.35"/>
<line x1="1126.99" y1="618.598" x2="-0.00683594" y2="618.598" stroke="#28282A" stroke-opacity="0.2" stroke-width="0.782639" stroke-dasharray="2.35 2.35"/>
<line x1="1126.99" y1="698.481" x2="-0.00683594" y2="698.481" stroke="#28282A" stroke-opacity="0.2" stroke-width="0.782639" stroke-dasharray="2.35 2.35"/>
<line x1="1126.99" y1="304.516" x2="-0.00683594" y2="304.516" stroke="#28282A" stroke-opacity="0.2" stroke-width="0.782639" stroke-dasharray="2.35 2.35"/>
<line x1="1126.99" y1="82.4773" x2="-0.00683594" y2="82.4773" stroke="#28282A" stroke-opacity="0.2" stroke-width="0.782639" stroke-dasharray="2.35 2.35"/>
<line x1="1126.99" y1="204.003" x2="-0.00683594" y2="204.003" stroke="#28282A" stroke-opacity="0.2" stroke-width="0.782639" stroke-dasharray="2.35 2.35"/>
<line x1="270.399" y1="0.00390627" x2="270.399" y2="730.989" stroke="#28282A" stroke-opacity="0.2" stroke-width="0.782639" stroke-dasharray="2.35 2.35"/>
<line x1="364.316" y1="0.00390627" x2="364.316" y2="730.989" stroke="#28282A" stroke-opacity="0.2" stroke-width="0.782639" stroke-dasharray="2.35 2.35"/>
<line x1="458.226" y1="0.00390627" x2="458.226" y2="730.989" stroke="#28282A" stroke-opacity="0.2" stroke-width="0.782639" stroke-dasharray="2.35 2.35"/>
<line x1="552.149" y1="0.00390627" x2="552.149" y2="730.989" stroke="#28282A" stroke-opacity="0.2" stroke-width="0.782639" stroke-dasharray="2.35 2.35"/>
<line x1="646.066" y1="0.00390627" x2="646.066" y2="730.989" stroke="#28282A" stroke-opacity="0.2" stroke-width="0.782639" stroke-dasharray="2.35 2.35"/>
<line x1="739.982" y1="0.00390627" x2="739.982" y2="730.989" stroke="#28282A" stroke-opacity="0.2" stroke-width="0.782639" stroke-dasharray="2.35 2.35"/>
<line x1="833.899" y1="0.00390627" x2="833.899" y2="730.989" stroke="#28282A" stroke-opacity="0.2" stroke-width="0.782639" stroke-dasharray="2.35 2.35"/>
<line x1="927.815" y1="0.00390627" x2="927.815" y2="730.989" stroke="#28282A" stroke-opacity="0.2" stroke-width="0.782639" stroke-dasharray="2.35 2.35"/>
<line x1="1021.73" y1="0.00390627" x2="1021.73" y2="730.989" stroke="#28282A" stroke-opacity="0.2" stroke-width="0.782639" stroke-dasharray="2.35 2.35"/>
<line y1="-0.391319" x2="15.5232" y2="-0.391319" transform="matrix(-0.806677 0.590993 -0.806677 -0.590993 282.529 304.316)" stroke="#C9C9C9" stroke-width="0.782639"/>
<line y1="-0.391319" x2="28.1358" y2="-0.391319" transform="matrix(-0.806677 0.590993 -0.806677 -0.590993 293.48 304.316)" stroke="#C9C9C9" stroke-width="0.782639"/>
<line y1="-0.391319" x2="45.5994" y2="-0.391319" transform="matrix(-0.806677 0.590993 -0.806677 -0.590993 306.785 303.818)" stroke="#C9C9C9" stroke-width="0.782639"/>
<line y1="-0.391319" x2="61.1227" y2="-0.391319" transform="matrix(-0.806677 0.590993 -0.806677 -0.590993 319.312 303.818)" stroke="#C9C9C9" stroke-width="0.782639"/>
<line y1="-0.391319" x2="74.7055" y2="-0.391319" transform="matrix(-0.806677 0.590993 -0.806677 -0.590993 331.053 303.818)" stroke="#C9C9C9" stroke-width="0.782639"/>
<line y1="-0.391319" x2="90.2287" y2="-0.391319" transform="matrix(-0.806677 0.590993 -0.806677 -0.590993 342.789 303.818)" stroke="#C9C9C9" stroke-width="0.782639"/>
<line y1="-0.391319" x2="103.812" y2="-0.391319" transform="matrix(-0.806677 0.590993 -0.806677 -0.590993 354.531 303.818)" stroke="#C9C9C9" stroke-width="0.782639"/>
<line y1="-0.391319" x2="115.454" y2="-0.391319" transform="matrix(-0.806677 0.590993 -0.806677 -0.590993 363.919 306.109)" stroke="#C9C9C9" stroke-width="0.782639"/>
<line y1="-0.391319" x2="115.454" y2="-0.391319" transform="matrix(-0.806677 0.590993 -0.806677 -0.590993 363.141 315.873)" stroke="#C9C9C9" stroke-width="0.782639"/>
<line y1="-0.391319" x2="113.514" y2="-0.391319" transform="matrix(-0.806677 0.590993 -0.806677 -0.590993 362.356 325.033)" stroke="#C9C9C9" stroke-width="0.782639"/>
<line y1="-0.391319" x2="113.514" y2="-0.391319" transform="matrix(-0.806677 0.590993 -0.806677 -0.590993 362.356 334.195)" stroke="#C9C9C9" stroke-width="0.782639"/>
<line y1="-0.391319" x2="113.514" y2="-0.391319" transform="matrix(-0.806677 0.590993 -0.806677 -0.590993 362.356 343.363)" stroke="#C9C9C9" stroke-width="0.782639"/>
<line y1="-0.391319" x2="115.454" y2="-0.391319" transform="matrix(-0.806677 0.590993 -0.806677 -0.590993 363.141 351.34)" stroke="#C9C9C9" stroke-width="0.782639"/>
<line y1="-0.391319" x2="109.633" y2="-0.391319" transform="matrix(-0.806677 0.590993 -0.806677 -0.590993 363.919 360.002)" stroke="#C9C9C9" stroke-width="0.782639"/>
<line y1="-0.391319" x2="92.1691" y2="-0.391319" transform="matrix(-0.806677 0.590993 -0.806677 -0.590993 361.578 370.258)" stroke="#C9C9C9" stroke-width="0.782639"/>
<line y1="-0.391319" x2="78.5863" y2="-0.391319" transform="matrix(-0.806677 0.590993 -0.806677 -0.590993 363.141 378.434)" stroke="#C9C9C9" stroke-width="0.782639"/>
<line y1="-0.391319" x2="64.0333" y2="-0.391319" transform="matrix(-0.806677 0.590993 -0.806677 -0.590993 362.356 387.592)" stroke="#C9C9C9" stroke-width="0.782639"/>
<line y1="-0.391319" x2="48.51" y2="-0.391319" transform="matrix(-0.806677 0.590993 -0.806677 -0.590993 363.141 396.062)" stroke="#C9C9C9" stroke-width="0.782639"/>
<line y1="-0.391319" x2="34.9272" y2="-0.391319" transform="matrix(-0.806677 0.590993 -0.806677 -0.590993 363.919 404.223)" stroke="#C9C9C9" stroke-width="0.782639"/>
<line y1="-0.391319" x2="19.404" y2="-0.391319" transform="matrix(-0.806677 0.590993 -0.806677 -0.590993 363.919 413.396)" stroke="#C9C9C9" stroke-width="0.782639"/>
<line y1="-0.391319" x2="3.8808" y2="-0.391319" transform="matrix(-0.806677 0.590993 -0.806677 -0.590993 363.919 422.559)" stroke="#C9C9C9" stroke-width="0.782639"/>
<line y1="-0.391319" x2="20.606" y2="-0.391319" transform="matrix(-0.607698 0.794168 -0.607698 -0.794168 752.118 209.594)" stroke="#C9C9C9" stroke-width="0.782639"/>
<line y1="-0.391319" x2="37.3484" y2="-0.391319" transform="matrix(-0.607698 0.794168 -0.607698 -0.794168 763.069 209.594)" stroke="#C9C9C9" stroke-width="0.782639"/>
<line y1="-0.391319" x2="60.5301" y2="-0.391319" transform="matrix(-0.607698 0.794168 -0.607698 -0.794168 776.374 208.594)" stroke="#C9C9C9" stroke-width="0.782639"/>
<line y1="-0.391319" x2="81.1361" y2="-0.391319" transform="matrix(-0.607698 0.794168 -0.607698 -0.794168 788.9 208.594)" stroke="#C9C9C9" stroke-width="0.782639"/>
<line y1="-0.391319" x2="99.1663" y2="-0.391319" transform="matrix(-0.607698 0.794168 -0.607698 -0.794168 800.642 208.594)" stroke="#C9C9C9" stroke-width="0.782639"/>
<line y1="-0.391319" x2="119.772" y2="-0.391319" transform="matrix(-0.607698 0.794168 -0.607698 -0.794168 812.378 208.594)" stroke="#C9C9C9" stroke-width="0.782639"/>
<line y1="-0.391319" x2="137.803" y2="-0.391319" transform="matrix(-0.607698 0.794168 -0.607698 -0.794168 824.12 208.594)" stroke="#C9C9C9" stroke-width="0.782639"/>
<line y1="-0.391319" x2="153.257" y2="-0.391319" transform="matrix(-0.607698 0.794168 -0.607698 -0.794168 833.508 212.684)" stroke="#C9C9C9" stroke-width="0.782639"/>
<line y1="-0.391319" x2="153.257" y2="-0.391319" transform="matrix(-0.607698 0.794168 -0.607698 -0.794168 832.73 230.006)" stroke="#C9C9C9" stroke-width="0.782639"/>
<line y1="-0.391319" x2="150.681" y2="-0.391319" transform="matrix(-0.607698 0.794168 -0.607698 -0.794168 831.945 246.451)" stroke="#C9C9C9" stroke-width="0.782639"/>
<line y1="-0.391319" x2="150.681" y2="-0.391319" transform="matrix(-0.607698 0.794168 -0.607698 -0.794168 831.945 262.779)" stroke="#C9C9C9" stroke-width="0.782639"/>
<line y1="-0.391319" x2="150.681" y2="-0.391319" transform="matrix(-0.607698 0.794168 -0.607698 -0.794168 831.945 279.119)" stroke="#C9C9C9" stroke-width="0.782639"/>
<line y1="-0.391319" x2="153.257" y2="-0.391319" transform="matrix(-0.607698 0.794168 -0.607698 -0.794168 832.73 293.463)" stroke="#C9C9C9" stroke-width="0.782639"/>
<line y1="-0.391319" x2="145.53" y2="-0.391319" transform="matrix(-0.607698 0.794168 -0.607698 -0.794168 833.508 308.801)" stroke="#C9C9C9" stroke-width="0.782639"/>
<line y1="-0.391319" x2="122.348" y2="-0.391319" transform="matrix(-0.607698 0.794168 -0.607698 -0.794168 831.167 327.23)" stroke="#C9C9C9" stroke-width="0.782639"/>
<line y1="-0.391319" x2="104.318" y2="-0.391319" transform="matrix(-0.607698 0.794168 -0.607698 -0.794168 832.73 341.574)" stroke="#C9C9C9" stroke-width="0.782639"/>
<line y1="-0.391319" x2="84.9997" y2="-0.391319" transform="matrix(-0.607698 0.794168 -0.607698 -0.794168 831.945 357.912)" stroke="#C9C9C9" stroke-width="0.782639"/>
<line y1="-0.391319" x2="64.3937" y2="-0.391319" transform="matrix(-0.607698 0.794168 -0.607698 -0.794168 832.73 373.254)" stroke="#C9C9C9" stroke-width="0.782639"/>
<line y1="-0.391319" x2="46.3635" y2="-0.391319" transform="matrix(-0.607698 0.794168 -0.607698 -0.794168 833.508 387.598)" stroke="#C9C9C9" stroke-width="0.782639"/>
<line y1="-0.391319" x2="25.7575" y2="-0.391319" transform="matrix(-0.607698 0.794168 -0.607698 -0.794168 833.508 403.936)" stroke="#C9C9C9" stroke-width="0.782639"/>
<line y1="-0.391319" x2="5.1515" y2="-0.391319" transform="matrix(-0.607698 0.794168 -0.607698 -0.794168 833.508 420.277)" stroke="#C9C9C9" stroke-width="0.782639"/>
</g>
</svg>
